<svg width="24" height="24" viewBox="0 0 24 24" fill="none" xmlns="http://www.w3.org/2000/svg">
<path d="M7 6H4M7 10H4M7 14H4M7 18H4M10.071 18.286C10.071 17.8357 10.1597 17.3898 10.332 16.9738C10.5043 16.5578 10.7569 16.1797 11.0753 15.8613C11.3937 15.5429 11.7718 15.2903 12.1878 15.118C12.6038 14.9457 13.0497 14.857 13.5 14.857C14.4094 14.857 15.2816 15.2183 15.9247 15.8613C16.5677 16.5044 16.929 17.3766 16.929 18.286M7 3H19C19.5523 3 20 3.44772 20 4V20C20 20.5523 19.5523 21 19 21H7C6.44772 21 6 20.5523 6 20V4C6 3.44772 6.44772 3 7 3ZM16 9.5C16 10.8807 14.8807 12 13.5 12C12.1193 12 11 10.8807 11 9.5C11 8.11929 12.1193 7 13.5 7C14.8807 7 16 8.11929 16 9.5Z" stroke="#2F2F38" stroke-width="2" stroke-linecap="round" stroke-linejoin="round"/>
</svg>
