<svg width="24" height="24" viewBox="0 0 24 24" fill="none" xmlns="http://www.w3.org/2000/svg">
<path d="M16 6C16.4656 6.00028 16.9248 6.10895 17.3412 6.31739C17.7575 6.52584 18.1197 6.82834 18.3989 7.20095C18.6781 7.57356 18.8668 8.00605 18.9499 8.46419C19.0331 8.92233 19.0085 9.39354 18.878 9.84052C18.7476 10.2875 18.5149 10.698 18.1983 11.0395C17.8818 11.3809 17.4901 11.644 17.0543 11.808C16.6184 11.9719 16.1505 12.0321 15.6873 11.9839C15.2242 11.9356 14.7787 11.7802 14.386 11.53M17 15C18.0609 15 19.0783 15.4214 19.8284 16.1716C20.5786 16.9217 21 17.9391 21 19V20H17.652M12 7.5C12 9.433 10.433 11 8.5 11C6.567 11 5 9.433 5 7.5C5 5.567 6.567 4 8.5 4C10.433 4 12 5.567 12 7.5ZM7 14H10C11.0609 14 12.0783 14.4214 12.8284 15.1716C13.5786 15.9217 14 16.9391 14 18V20H3V18C3 16.9391 3.42143 15.9217 4.17157 15.1716C4.92172 14.4214 5.93913 14 7 14Z" stroke="#2F2F38" stroke-width="2" stroke-linecap="round" stroke-linejoin="round"/>
</svg>
