<svg width="24" height="24" viewBox="0 0 24 24" fill="none" xmlns="http://www.w3.org/2000/svg">
<path d="M13.4141 12L18.7071 6.70696C18.8026 6.61471 18.8788 6.50437 18.9312 6.38236C18.9836 6.26036 19.0112 6.12914 19.0123 5.99636C19.0135 5.86358 18.9882 5.7319 18.9379 5.60901C18.8876 5.48611 18.8134 5.37446 18.7195 5.28056C18.6256 5.18667 18.5139 5.11242 18.391 5.06214C18.2681 5.01186 18.1365 4.98655 18.0037 4.98771C17.8709 4.98886 17.7397 5.01645 17.6177 5.06886C17.4957 5.12127 17.3853 5.19745 17.2931 5.29296L12.0001 10.586L6.70708 5.29296C6.51848 5.1108 6.26588 5.01001 6.00368 5.01228C5.74148 5.01456 5.49067 5.11973 5.30526 5.30514C5.11985 5.49055 5.01469 5.74136 5.01241 6.00356C5.01013 6.26575 5.11092 6.51836 5.29308 6.70696L10.5861 12L5.29308 17.293C5.19757 17.3852 5.12139 17.4956 5.06898 17.6176C5.01657 17.7396 4.98898 17.8708 4.98783 18.0036C4.98668 18.1363 5.01198 18.268 5.06226 18.3909C5.11254 18.5138 5.18679 18.6255 5.28069 18.7194C5.37458 18.8132 5.48623 18.8875 5.60913 18.9378C5.73202 18.9881 5.8637 19.0134 5.99648 19.0122C6.12926 19.0111 6.26048 18.9835 6.38249 18.9311C6.50449 18.8787 6.61483 18.8025 6.70708 18.707L12.0001 13.414L17.2931 18.707C17.4817 18.8891 17.7343 18.9899 17.9965 18.9876C18.2587 18.9854 18.5095 18.8802 18.6949 18.6948C18.8803 18.5094 18.9855 18.2586 18.9878 17.9964C18.99 17.7342 18.8892 17.4816 18.7071 17.293L13.4141 12Z" fill="#2F2F38"/>
</svg>
